<svg width="16" height="16" viewBox="0 0 16 16" fill="none" xmlns="http://www.w3.org/2000/svg">
<g id="Group">
<path id="Vector" d="M10.6667 4.66602H7.33333C6.27247 4.66602 5.25505 5.08744 4.50491 5.83759C3.75476 6.58773 3.33333 7.60515 3.33333 8.66602C3.33333 9.72688 3.75476 10.7443 4.50491 11.4944C5.25505 12.2446 6.27247 12.666 7.33333 12.666H13.3333V13.9993H7.33333C5.91885 13.9993 4.56229 13.4374 3.5621 12.4373C2.5619 11.4371 2 10.0805 2 8.66602C2 7.25153 2.5619 5.89497 3.5621 4.89478C4.56229 3.89459 5.91885 3.33268 7.33333 3.33268H10.6667V0.666016L14.6667 3.99935L10.6667 7.33268V4.66602Z" fill="black"/>
</g>
</svg>
