<svg width="16" height="16" viewBox="0 0 16 16" fill="none" xmlns="http://www.w3.org/2000/svg">
<g id="Group">
<path id="Vector" d="M3.88598 4.66588L5.57665 6.35655L4.63398 7.29922L1.33398 3.99922L4.63398 0.699219L5.57665 1.64189L3.88598 3.33255H8.66732C10.0818 3.33255 11.4384 3.89446 12.4386 4.89465C13.4387 5.89484 14.0007 7.2514 14.0007 8.66588C14.0007 10.0804 13.4387 11.4369 12.4386 12.4371C11.4384 13.4373 10.0818 13.9992 8.66732 13.9992H2.66732V12.6659H8.66732C9.72818 12.6659 10.7456 12.2445 11.4957 11.4943C12.2459 10.7442 12.6673 9.72675 12.6673 8.66588C12.6673 7.60502 12.2459 6.5876 11.4957 5.83746C10.7456 5.08731 9.72818 4.66588 8.66732 4.66588H3.88598Z" fill="black"/>
</g>
</svg>
