<svg width="518" height="332" viewBox="0 0 518 332" fill="none" xmlns="http://www.w3.org/2000/svg">
<rect x="0.5" y="0.5" width="517" height="331" rx="7.5" stroke="#B1B5C3" stroke-dasharray="7 7"/>
<path d="M253.999 109.583C253.316 109.583 252.749 109.017 252.749 108.333V101.35L251.549 102.55C251.066 103.033 250.266 103.033 249.782 102.55C249.299 102.067 249.299 101.267 249.782 100.783L253.116 97.4501C253.466 97.1001 254.016 96.9835 254.482 97.1835C254.949 97.3668 255.249 97.8335 255.249 98.3335V108.333C255.249 109.017 254.682 109.583 253.999 109.583Z" fill="#0035F0"/>
<path d="M257.333 102.917C257.016 102.917 256.7 102.8 256.45 102.55L253.116 99.2171C252.633 98.7337 252.633 97.9337 253.116 97.4504C253.6 96.9671 254.4 96.9671 254.883 97.4504L258.216 100.784C258.7 101.267 258.7 102.067 258.216 102.55C257.966 102.8 257.65 102.917 257.333 102.917Z" fill="#0035F0"/>
<path d="M264.001 117.917H254.001C244.951 117.917 241.084 114.051 241.084 105.001V95.0007C241.084 85.9507 244.951 82.084 254.001 82.084H262.334C263.017 82.084 263.584 82.6507 263.584 83.334C263.584 84.0173 263.017 84.584 262.334 84.584H254.001C246.317 84.584 243.584 87.3173 243.584 95.0007V105.001C243.584 112.684 246.317 115.417 254.001 115.417H264.001C271.684 115.417 274.417 112.684 274.417 105.001V96.6673C274.417 95.984 274.984 95.4173 275.667 95.4173C276.351 95.4173 276.917 95.984 276.917 96.6673V105.001C276.917 114.051 273.051 117.917 264.001 117.917Z" fill="#0035F0"/>
<path d="M275.667 97.9168H269.001C263.301 97.9168 261.084 95.7001 261.084 90.0001V83.3335C261.084 82.8335 261.384 82.3668 261.851 82.1835C262.317 81.9835 262.851 82.1001 263.217 82.4501L276.551 95.7835C276.901 96.1335 277.017 96.6835 276.817 97.1501C276.617 97.6168 276.167 97.9168 275.667 97.9168ZM263.584 86.3501V90.0001C263.584 94.3001 264.701 95.4168 269.001 95.4168H272.651L263.584 86.3501Z" fill="#0035F0"/>
<path d="M64.1 178H59.56V163.64H64.1C68.68 163.64 71.32 166.56 71.32 170.76C71.32 174.9 68.58 178 64.1 178ZM61.76 165.54V176.1H64C67.3 176.1 69.08 174.06 69.08 170.76C69.08 167.52 67.32 165.54 64 165.54H61.76ZM75.4825 172.58V178H73.4625V167.4H75.3425V169.64C76.0825 168.18 77.6825 167.26 79.4225 167.26V169.36C77.1425 169.24 75.4825 170.24 75.4825 172.58ZM87.4411 178V176.36C86.7811 177.54 85.6011 178.2 84.0411 178.2C81.8411 178.2 80.4011 176.94 80.4011 175C80.4011 172.92 82.0611 171.84 85.2211 171.84C85.8411 171.84 86.3411 171.86 87.2011 171.96V171.18C87.2011 169.66 86.3811 168.8 84.9811 168.8C83.5011 168.8 82.6011 169.68 82.5411 171.16H80.7011C80.8011 168.78 82.5011 167.2 84.9811 167.2C87.6011 167.2 89.1211 168.68 89.1211 171.2V178H87.4411ZM82.3211 174.94C82.3211 176.04 83.1411 176.76 84.4411 176.76C86.1411 176.76 87.2011 175.7 87.2011 174.08V173.22C86.4211 173.12 85.8611 173.1 85.3411 173.1C83.3211 173.1 82.3211 173.7 82.3211 174.94ZM96.0619 182.08C93.2819 182.08 91.4819 180.6 91.3619 178.2H93.3219C93.4419 179.68 94.4019 180.48 96.0419 180.48C97.8619 180.48 98.8219 179.5 98.8219 177.68V175.76C98.2219 177.04 97.0219 177.78 95.5819 177.78C92.9419 177.78 91.0619 175.6 91.0619 172.48C91.0619 169.32 92.8619 167.2 95.5219 167.2C97.0419 167.2 98.2419 167.94 98.9619 169.28V167.4H100.842V177.64C100.842 180.42 99.0619 182.08 96.0619 182.08ZM93.1019 172.48C93.1019 174.68 94.1819 176.02 95.9419 176.02C97.6619 176.02 98.8219 174.64 98.8219 172.54C98.8219 170.34 97.6819 168.94 95.9419 168.94C94.2019 168.94 93.1019 170.3 93.1019 172.48ZM112.318 170.3L115.518 173.9C115.758 173.2 115.898 172.34 115.938 171.42H117.798C117.758 172.76 117.358 174.16 116.718 175.24L119.178 178H116.658L115.518 176.72C114.438 177.7 113.178 178.2 111.858 178.2C108.978 178.2 107.138 176.52 107.138 173.9C107.138 172.28 108.178 170.98 109.758 170.22C109.138 169.38 108.838 168.64 108.838 167.68C108.838 165.72 110.498 164.28 112.718 164.28C114.958 164.28 116.518 165.68 116.558 167.74H114.658C114.558 166.56 113.698 165.9 112.718 165.9C111.678 165.9 110.898 166.66 110.898 167.7C110.898 168.6 111.378 169.22 112.318 170.3ZM109.078 173.78C109.078 175.2 110.018 176.54 112.018 176.54C112.938 176.54 113.818 176.18 114.478 175.56L110.798 171.42C109.778 171.84 109.078 172.68 109.078 173.78ZM124.206 172.7C124.206 169.48 126.046 167.2 128.906 167.2C130.326 167.2 131.566 167.92 132.306 169.22V163.64H134.326V178H132.446V176.1C131.686 177.44 130.406 178.2 128.906 178.2C126.046 178.2 124.206 175.88 124.206 172.7ZM126.306 172.7C126.306 175.06 127.546 176.4 129.306 176.4C131.026 176.4 132.306 175 132.306 172.66C132.306 170.28 130.986 168.98 129.306 168.98C127.546 168.98 126.306 170.3 126.306 172.7ZM139.154 172.58V178H137.134V167.4H139.014V169.64C139.754 168.18 141.354 167.26 143.094 167.26V169.36C140.814 169.24 139.154 170.24 139.154 172.58ZM149.094 178.2C146.094 178.2 143.894 175.84 143.894 172.7C143.894 169.56 146.094 167.2 149.094 167.2C152.094 167.2 154.294 169.56 154.294 172.7C154.294 175.84 152.094 178.2 149.094 178.2ZM149.094 176.42C150.834 176.42 152.214 175.02 152.214 172.7C152.214 170.38 150.834 169 149.094 169C147.354 169 145.994 170.38 145.994 172.7C145.994 175.02 147.354 176.42 149.094 176.42ZM166.473 172.7C166.473 175.9 164.633 178.2 161.793 178.2C160.353 178.2 159.133 177.48 158.373 176.2V181.86H156.353V167.4H158.233V169.34C158.993 167.98 160.293 167.2 161.793 167.2C164.613 167.2 166.473 169.5 166.473 172.7ZM164.373 172.7C164.373 170.32 163.113 168.98 161.373 168.98C159.693 168.98 158.373 170.32 158.373 172.7C158.373 175.04 159.673 176.4 161.373 176.4C163.113 176.4 164.373 175.08 164.373 172.7ZM175.681 178H173.661V169.12H171.321V167.4H173.661V166.62C173.661 164.58 174.761 163.46 176.761 163.46C177.361 163.46 177.841 163.56 178.241 163.72V165.36C177.921 165.22 177.561 165.18 177.201 165.18C176.241 165.18 175.681 165.62 175.681 166.64V167.4H178.641V169.12H175.681V178ZM182.621 164.94C182.621 165.7 182.021 166.28 181.161 166.28C180.301 166.28 179.701 165.7 179.701 164.94C179.701 164.16 180.301 163.6 181.161 163.6C182.021 163.6 182.621 164.16 182.621 164.94ZM182.181 178H180.161V167.4H182.181V178ZM187.026 178H184.986V163.64H187.026V178ZM194.19 178.2C191.13 178.2 189.07 175.98 189.07 172.64C189.07 169.5 191.21 167.2 194.13 167.2C197.29 167.2 199.39 169.76 199.03 173.2H191.13C191.29 175.36 192.37 176.62 194.15 176.62C195.65 176.62 196.69 175.8 197.03 174.42H199.03C198.51 176.78 196.69 178.2 194.19 178.2ZM194.09 168.72C192.47 168.72 191.37 169.88 191.15 171.86H196.89C196.79 169.9 195.73 168.72 194.09 168.72ZM209.577 174.84C209.577 176.92 207.957 178.2 205.137 178.2C202.337 178.2 200.677 176.82 200.477 174.54H202.417C202.497 175.86 203.557 176.68 205.177 176.68C206.597 176.68 207.537 176.18 207.537 175.18C207.537 174.3 206.997 173.92 205.677 173.66L203.957 173.34C201.997 172.96 200.897 171.96 200.897 170.36C200.897 168.5 202.517 167.2 204.977 167.2C207.517 167.2 209.237 168.56 209.417 170.74H207.477C207.357 169.46 206.417 168.72 204.997 168.72C203.717 168.72 202.857 169.26 202.857 170.18C202.857 171.04 203.397 171.44 204.677 171.68L206.477 172.02C208.577 172.4 209.577 173.32 209.577 174.84ZM217.983 172.02V178H215.963V163.64H217.983V169.1C218.683 167.96 219.763 167.2 221.223 167.2C223.403 167.2 224.842 168.6 224.842 171.14V178H222.823V171.82C222.823 170 222.023 168.98 220.523 168.98C219.143 168.98 217.983 170.14 217.983 172.02ZM231.885 178.2C228.825 178.2 226.765 175.98 226.765 172.64C226.765 169.5 228.905 167.2 231.825 167.2C234.985 167.2 237.085 169.76 236.725 173.2H228.825C228.985 175.36 230.065 176.62 231.845 176.62C233.345 176.62 234.385 175.8 234.725 174.42H236.725C236.205 176.78 234.385 178.2 231.885 178.2ZM231.785 168.72C230.165 168.72 229.065 169.88 228.845 171.86H234.585C234.485 169.9 233.425 168.72 231.785 168.72ZM240.893 172.58V178H238.873V167.4H240.753V169.64C241.493 168.18 243.093 167.26 244.833 167.26V169.36C242.553 169.24 240.893 170.24 240.893 172.58ZM250.752 178.2C247.692 178.2 245.632 175.98 245.632 172.64C245.632 169.5 247.772 167.2 250.692 167.2C253.852 167.2 255.952 169.76 255.592 173.2H247.692C247.852 175.36 248.932 176.62 250.712 176.62C252.212 176.62 253.252 175.8 253.592 174.42H255.592C255.072 176.78 253.252 178.2 250.752 178.2ZM250.652 168.72C249.032 168.72 247.932 169.88 247.712 171.86H253.452C253.352 169.9 252.292 168.72 250.652 168.72ZM260.187 177.14C260.187 179.04 258.687 180.52 256.487 180.56V179.42C257.787 179.38 258.667 178.68 258.787 177.7C258.607 177.76 258.487 177.78 258.347 177.78C257.587 177.78 257.027 177.16 257.027 176.42C257.027 175.56 257.667 175 258.487 175C259.587 175 260.187 175.8 260.187 177.14ZM271.262 178.2C268.262 178.2 266.062 175.84 266.062 172.7C266.062 169.56 268.262 167.2 271.262 167.2C274.262 167.2 276.462 169.56 276.462 172.7C276.462 175.84 274.262 178.2 271.262 178.2ZM271.262 176.42C273.002 176.42 274.382 175.02 274.382 172.7C274.382 170.38 273.002 169 271.262 169C269.522 169 268.162 170.38 268.162 172.7C268.162 175.02 269.522 176.42 271.262 176.42ZM280.541 172.58V178H278.521V167.4H280.401V169.64C281.141 168.18 282.741 167.26 284.481 167.26V169.36C282.201 169.24 280.541 170.24 280.541 172.58ZM294.439 178.22C291.539 178.22 289.499 175.94 289.499 172.7C289.499 169.5 291.579 167.2 294.439 167.2C297.059 167.2 298.959 168.94 299.339 171.7H297.219C296.999 170 295.939 168.98 294.459 168.98C292.719 168.98 291.579 170.46 291.579 172.7C291.579 174.96 292.719 176.42 294.459 176.42C295.959 176.42 296.999 175.42 297.239 173.7H299.339C298.979 176.5 297.099 178.22 294.439 178.22ZM303.413 178H301.373V163.64H303.413V178ZM308.676 164.94C308.676 165.7 308.076 166.28 307.216 166.28C306.356 166.28 305.736 165.7 305.736 164.94C305.736 164.16 306.356 163.6 307.216 163.6C308.076 163.6 308.676 164.16 308.676 164.94ZM308.236 178H306.216V167.4H308.236V178ZM315.221 178.22C312.321 178.22 310.281 175.94 310.281 172.7C310.281 169.5 312.361 167.2 315.221 167.2C317.841 167.2 319.741 168.94 320.121 171.7H318.001C317.781 170 316.721 168.98 315.241 168.98C313.501 168.98 312.361 170.46 312.361 172.7C312.361 174.96 313.501 176.42 315.241 176.42C316.741 176.42 317.781 175.42 318.021 173.7H320.121C319.761 176.5 317.881 178.22 315.221 178.22ZM324.174 178H322.154V163.64H324.174V172.14L328.714 167.4H331.094L326.194 172.54L331.554 178H328.954L324.174 172.98V178ZM343.134 176.04V177.82C342.514 178.1 341.974 178.2 341.334 178.2C339.374 178.2 338.014 177.14 338.014 174.8V169.12H335.674V167.4H338.014V164.26H340.034V167.4H343.234V169.12H340.034V174.34C340.034 175.8 340.734 176.32 341.814 176.32C342.294 176.32 342.714 176.24 343.134 176.04ZM349.309 178.2C346.309 178.2 344.109 175.84 344.109 172.7C344.109 169.56 346.309 167.2 349.309 167.2C352.309 167.2 354.509 169.56 354.509 172.7C354.509 175.84 352.309 178.2 349.309 178.2ZM349.309 176.42C351.049 176.42 352.429 175.02 352.429 172.7C352.429 170.38 351.049 169 349.309 169C347.569 169 346.209 170.38 346.209 172.7C346.209 175.02 347.569 176.42 349.309 176.42ZM369.148 174.84C369.148 176.92 367.528 178.2 364.708 178.2C361.908 178.2 360.248 176.82 360.048 174.54H361.988C362.068 175.86 363.128 176.68 364.748 176.68C366.168 176.68 367.108 176.18 367.108 175.18C367.108 174.3 366.568 173.92 365.248 173.66L363.528 173.34C361.568 172.96 360.468 171.96 360.468 170.36C360.468 168.5 362.088 167.2 364.548 167.2C367.088 167.2 368.808 168.56 368.988 170.74H367.048C366.928 169.46 365.988 168.72 364.568 168.72C363.288 168.72 362.428 169.26 362.428 170.18C362.428 171.04 362.968 171.44 364.248 171.68L366.048 172.02C368.148 172.4 369.148 173.32 369.148 174.84ZM375.713 178.2C372.653 178.2 370.593 175.98 370.593 172.64C370.593 169.5 372.733 167.2 375.653 167.2C378.813 167.2 380.913 169.76 380.553 173.2H372.653C372.813 175.36 373.893 176.62 375.673 176.62C377.173 176.62 378.213 175.8 378.553 174.42H380.553C380.033 176.78 378.213 178.2 375.713 178.2ZM375.613 168.72C373.993 168.72 372.893 169.88 372.673 171.86H378.413C378.313 169.9 377.253 168.72 375.613 168.72ZM384.741 178H382.701V163.64H384.741V178ZM391.905 178.2C388.845 178.2 386.785 175.98 386.785 172.64C386.785 169.5 388.925 167.2 391.845 167.2C395.005 167.2 397.105 169.76 396.745 173.2H388.845C389.005 175.36 390.085 176.62 391.865 176.62C393.365 176.62 394.405 175.8 394.745 174.42H396.745C396.225 176.78 394.405 178.2 391.905 178.2ZM391.805 168.72C390.185 168.72 389.085 169.88 388.865 171.86H394.605C394.505 169.9 393.445 168.72 391.805 168.72ZM402.877 178.22C399.977 178.22 397.937 175.94 397.937 172.7C397.937 169.5 400.017 167.2 402.877 167.2C405.497 167.2 407.397 168.94 407.777 171.7H405.657C405.437 170 404.377 168.98 402.897 168.98C401.157 168.98 400.017 170.46 400.017 172.7C400.017 174.96 401.157 176.42 402.897 176.42C404.397 176.42 405.437 175.42 405.677 173.7H407.777C407.417 176.5 405.537 178.22 402.877 178.22ZM415.79 176.04V177.82C415.17 178.1 414.63 178.2 413.99 178.2C412.03 178.2 410.67 177.14 410.67 174.8V169.12H408.33V167.4H410.67V164.26H412.69V167.4H415.89V169.12H412.69V174.34C412.69 175.8 413.39 176.32 414.47 176.32C414.95 176.32 415.37 176.24 415.79 176.04ZM424.978 178H422.958V169.12H420.618V167.4H422.958V166.62C422.958 164.58 424.058 163.46 426.058 163.46C426.658 163.46 427.138 163.56 427.538 163.72V165.36C427.218 165.22 426.858 165.18 426.498 165.18C425.538 165.18 424.978 165.62 424.978 166.64V167.4H427.938V169.12H424.978V178ZM431.918 164.94C431.918 165.7 431.318 166.28 430.458 166.28C429.598 166.28 428.998 165.7 428.998 164.94C428.998 164.16 429.598 163.6 430.458 163.6C431.318 163.6 431.918 164.16 431.918 164.94ZM431.478 178H429.458V167.4H431.478V178ZM436.323 178H434.283V163.64H436.323V178ZM443.487 178.2C440.427 178.2 438.367 175.98 438.367 172.64C438.367 169.5 440.507 167.2 443.427 167.2C446.587 167.2 448.687 169.76 448.327 173.2H440.427C440.587 175.36 441.667 176.62 443.447 176.62C444.947 176.62 445.987 175.8 446.327 174.42H448.327C447.807 176.78 445.987 178.2 443.487 178.2ZM443.387 168.72C441.767 168.72 440.667 169.88 440.447 171.86H446.187C446.087 169.9 445.027 168.72 443.387 168.72ZM458.874 174.84C458.874 176.92 457.254 178.2 454.434 178.2C451.634 178.2 449.974 176.82 449.774 174.54H451.714C451.794 175.86 452.854 176.68 454.474 176.68C455.894 176.68 456.834 176.18 456.834 175.18C456.834 174.3 456.294 173.92 454.974 173.66L453.254 173.34C451.294 172.96 450.194 171.96 450.194 170.36C450.194 168.5 451.814 167.2 454.274 167.2C456.814 167.2 458.534 168.56 458.714 170.74H456.774C456.654 169.46 455.714 168.72 454.294 168.72C453.014 168.72 452.154 169.26 452.154 170.18C452.154 171.04 452.694 171.44 453.974 171.68L455.774 172.02C457.874 172.4 458.874 173.32 458.874 174.84Z" fill="black"/>
<path d="M71.6246 218.64C71.6246 220.64 70.0246 222.16 67.2406 222.16C64.4726 222.16 62.7926 220.64 62.6486 218.352H64.4406C64.5206 219.808 65.4486 220.752 67.2086 220.752C68.6646 220.752 69.7526 220.064 69.7526 218.88C69.7526 217.92 69.1286 217.44 67.8006 217.152L66.1366 216.832C64.5206 216.512 63.0486 215.696 63.0486 213.744C63.0486 211.808 64.7446 210.352 67.1286 210.352C69.5126 210.352 71.3206 211.808 71.4646 214.096H69.6726C69.5766 212.72 68.5846 211.76 67.1446 211.76C65.6566 211.76 64.8406 212.64 64.8406 213.632C64.8406 214.72 65.7846 215.104 66.8566 215.328L68.5526 215.664C70.5206 216.064 71.6246 216.928 71.6246 218.64ZM78.6738 218.512V213.52H80.2898V222H78.7858V220.656C78.3378 221.536 77.3458 222.16 76.1938 222.16C74.4818 222.16 73.2978 221.152 73.2978 218.976V213.52H74.9138V218.656C74.9138 220.128 75.6498 220.736 76.7058 220.736C77.7938 220.736 78.6738 219.84 78.6738 218.512ZM90.6301 217.76C90.6301 220.32 89.1581 222.16 86.8861 222.16C85.7341 222.16 84.7581 221.584 84.1501 220.56V225.088H82.5341V213.52H84.0381V215.072C84.6461 213.984 85.6861 213.36 86.8861 213.36C89.1421 213.36 90.6301 215.2 90.6301 217.76ZM88.9501 217.76C88.9501 215.856 87.9421 214.784 86.5501 214.784C85.2061 214.784 84.1501 215.856 84.1501 217.76C84.1501 219.632 85.1901 220.72 86.5501 220.72C87.9421 220.72 88.9501 219.664 88.9501 217.76ZM100.364 217.76C100.364 220.32 98.8924 222.16 96.6204 222.16C95.4684 222.16 94.4924 221.584 93.8844 220.56V225.088H92.2684V213.52H93.7724V215.072C94.3804 213.984 95.4204 213.36 96.6204 213.36C98.8764 213.36 100.364 215.2 100.364 217.76ZM98.6844 217.76C98.6844 215.856 97.6764 214.784 96.2844 214.784C94.9404 214.784 93.8844 215.856 93.8844 217.76C93.8844 219.632 94.9244 220.72 96.2844 220.72C97.6764 220.72 98.6844 219.664 98.6844 217.76ZM105.555 222.16C103.155 222.16 101.395 220.272 101.395 217.76C101.395 215.248 103.155 213.36 105.555 213.36C107.955 213.36 109.715 215.248 109.715 217.76C109.715 220.272 107.955 222.16 105.555 222.16ZM105.555 220.736C106.947 220.736 108.051 219.616 108.051 217.76C108.051 215.904 106.947 214.8 105.555 214.8C104.163 214.8 103.075 215.904 103.075 217.76C103.075 219.616 104.163 220.736 105.555 220.736ZM112.978 217.664V222H111.362V213.52H112.866V215.312C113.458 214.144 114.738 213.408 116.13 213.408V215.088C114.306 214.992 112.978 215.792 112.978 217.664ZM122.709 220.432V221.856C122.213 222.08 121.781 222.16 121.269 222.16C119.701 222.16 118.613 221.312 118.613 219.44V214.896H116.741V213.52H118.613V211.008H120.229V213.52H122.789V214.896H120.229V219.072C120.229 220.24 120.789 220.656 121.653 220.656C122.037 220.656 122.373 220.592 122.709 220.432ZM130.059 222H128.443V214.896H126.571V213.52H128.443V212.896C128.443 211.264 129.323 210.368 130.923 210.368C131.403 210.368 131.787 210.448 132.107 210.576V211.888C131.851 211.776 131.563 211.744 131.275 211.744C130.507 211.744 130.059 212.096 130.059 212.912V213.52H132.427V214.896H130.059V222ZM136.977 222.16C134.577 222.16 132.817 220.272 132.817 217.76C132.817 215.248 134.577 213.36 136.977 213.36C139.377 213.36 141.137 215.248 141.137 217.76C141.137 220.272 139.377 222.16 136.977 222.16ZM136.977 220.736C138.369 220.736 139.473 219.616 139.473 217.76C139.473 215.904 138.369 214.8 136.977 214.8C135.585 214.8 134.497 215.904 134.497 217.76C134.497 219.616 135.585 220.736 136.977 220.736ZM144.4 217.664V222H142.784V213.52H144.288V215.312C144.88 214.144 146.16 213.408 147.552 213.408V215.088C145.728 214.992 144.4 215.792 144.4 217.664ZM157.311 222V220.688C156.783 221.632 155.839 222.16 154.591 222.16C152.831 222.16 151.679 221.152 151.679 219.6C151.679 217.936 153.007 217.072 155.535 217.072C156.031 217.072 156.431 217.088 157.119 217.168V216.544C157.119 215.328 156.463 214.64 155.343 214.64C154.159 214.64 153.439 215.344 153.391 216.528H151.919C151.999 214.624 153.359 213.36 155.343 213.36C157.439 213.36 158.655 214.544 158.655 216.56V222H157.311ZM153.215 219.552C153.215 220.432 153.871 221.008 154.911 221.008C156.271 221.008 157.119 220.16 157.119 218.864V218.176C156.495 218.096 156.047 218.08 155.631 218.08C154.015 218.08 153.215 218.56 153.215 219.552ZM170.879 219.472C170.879 221.136 169.583 222.16 167.327 222.16C165.087 222.16 163.759 221.056 163.599 219.232H165.151C165.215 220.288 166.063 220.944 167.359 220.944C168.495 220.944 169.247 220.544 169.247 219.744C169.247 219.04 168.815 218.736 167.759 218.528L166.383 218.272C164.815 217.968 163.935 217.168 163.935 215.888C163.935 214.4 165.231 213.36 167.199 213.36C169.231 213.36 170.607 214.448 170.751 216.192H169.199C169.103 215.168 168.351 214.576 167.215 214.576C166.191 214.576 165.503 215.008 165.503 215.744C165.503 216.432 165.935 216.752 166.959 216.944L168.399 217.216C170.079 217.52 170.879 218.256 170.879 219.472ZM174.611 211.552C174.611 212.16 174.131 212.624 173.443 212.624C172.755 212.624 172.259 212.16 172.259 211.552C172.259 210.928 172.755 210.48 173.443 210.48C174.131 210.48 174.611 210.928 174.611 211.552ZM174.259 222H172.643V213.52H174.259V222ZM178.119 217.216V222H176.503V213.52H178.007V214.928C178.583 213.984 179.543 213.36 180.711 213.36C182.455 213.36 183.607 214.48 183.607 216.512V222H181.991V217.056C181.991 215.6 181.351 214.784 180.151 214.784C179.047 214.784 178.119 215.712 178.119 217.216ZM189.145 225.264C186.921 225.264 185.481 224.08 185.385 222.16H186.953C187.049 223.344 187.817 223.984 189.129 223.984C190.585 223.984 191.353 223.2 191.353 221.744V220.208C190.873 221.232 189.913 221.824 188.761 221.824C186.649 221.824 185.145 220.08 185.145 217.584C185.145 215.056 186.585 213.36 188.713 213.36C189.929 213.36 190.889 213.952 191.465 215.024V213.52H192.969V221.712C192.969 223.936 191.545 225.264 189.145 225.264ZM186.777 217.584C186.777 219.344 187.641 220.416 189.049 220.416C190.425 220.416 191.353 219.312 191.353 217.632C191.353 215.872 190.441 214.752 189.049 214.752C187.657 214.752 186.777 215.84 186.777 217.584ZM196.838 222H195.206V210.512H196.838V222ZM202.569 222.16C200.121 222.16 198.473 220.384 198.473 217.712C198.473 215.2 200.185 213.36 202.521 213.36C205.049 213.36 206.729 215.408 206.441 218.16H200.121C200.249 219.888 201.113 220.896 202.537 220.896C203.737 220.896 204.569 220.24 204.841 219.136H206.441C206.025 221.024 204.569 222.16 202.569 222.16ZM202.489 214.576C201.193 214.576 200.313 215.504 200.137 217.088H204.729C204.649 215.52 203.801 214.576 202.489 214.576ZM215.055 222.16C212.655 222.16 210.895 220.272 210.895 217.76C210.895 215.248 212.655 213.36 215.055 213.36C217.455 213.36 219.215 215.248 219.215 217.76C219.215 220.272 217.455 222.16 215.055 222.16ZM215.055 220.736C216.447 220.736 217.551 219.616 217.551 217.76C217.551 215.904 216.447 214.8 215.055 214.8C213.663 214.8 212.575 215.904 212.575 217.76C212.575 219.616 213.663 220.736 215.055 220.736ZM222.478 217.664V222H220.862V213.52H222.366V215.312C222.958 214.144 224.238 213.408 225.63 213.408V215.088C223.806 214.992 222.478 215.792 222.478 217.664ZM238.349 217.76C238.349 220.304 236.877 222.16 234.589 222.16C233.389 222.16 232.365 221.552 231.757 220.48V222H230.253V210.512H231.869V214.976C232.461 213.936 233.437 213.36 234.589 213.36C236.861 213.36 238.349 215.184 238.349 217.76ZM236.669 217.76C236.669 215.84 235.661 214.784 234.269 214.784C232.925 214.784 231.869 215.824 231.869 217.728C231.869 219.6 232.893 220.72 234.269 220.72C235.661 220.72 236.669 219.648 236.669 217.76ZM245.283 218.512V213.52H246.899V222H245.395V220.656C244.947 221.536 243.955 222.16 242.803 222.16C241.091 222.16 239.907 221.152 239.907 218.976V213.52H241.523V218.656C241.523 220.128 242.259 220.736 243.315 220.736C244.403 220.736 245.283 219.84 245.283 218.512ZM250.775 222H249.143V210.512H250.775V222ZM254.634 222H253.018V210.512H254.634V217.312L258.266 213.52H260.17L256.25 217.632L260.538 222H258.458L254.634 217.984V222ZM270.314 218.512V213.52H271.93V222H270.426V220.656C269.978 221.536 268.986 222.16 267.834 222.16C266.122 222.16 264.938 221.152 264.938 218.976V213.52H266.554V218.656C266.554 220.128 267.29 220.736 268.346 220.736C269.434 220.736 270.314 219.84 270.314 218.512ZM282.271 217.76C282.271 220.32 280.799 222.16 278.527 222.16C277.375 222.16 276.399 221.584 275.791 220.56V225.088H274.175V213.52H275.679V215.072C276.287 213.984 277.327 213.36 278.527 213.36C280.783 213.36 282.271 215.2 282.271 217.76ZM280.591 217.76C280.591 215.856 279.583 214.784 278.191 214.784C276.847 214.784 275.791 215.856 275.791 217.76C275.791 219.632 276.831 220.72 278.191 220.72C279.583 220.72 280.591 219.664 280.591 217.76ZM285.541 222H283.909V210.512H285.541V222ZM291.336 222.16C288.936 222.16 287.176 220.272 287.176 217.76C287.176 215.248 288.936 213.36 291.336 213.36C293.736 213.36 295.496 215.248 295.496 217.76C295.496 220.272 293.736 222.16 291.336 222.16ZM291.336 220.736C292.728 220.736 293.832 219.616 293.832 217.76C293.832 215.904 292.728 214.8 291.336 214.8C289.944 214.8 288.856 215.904 288.856 217.76C288.856 219.616 289.944 220.736 291.336 220.736ZM302.279 222V220.688C301.751 221.632 300.807 222.16 299.559 222.16C297.799 222.16 296.647 221.152 296.647 219.6C296.647 217.936 297.975 217.072 300.503 217.072C300.999 217.072 301.399 217.088 302.087 217.168V216.544C302.087 215.328 301.431 214.64 300.311 214.64C299.127 214.64 298.407 215.344 298.359 216.528H296.887C296.967 214.624 298.327 213.36 300.311 213.36C302.407 213.36 303.623 214.544 303.623 216.56V222H302.279ZM298.183 219.552C298.183 220.432 298.839 221.008 299.879 221.008C301.239 221.008 302.087 220.16 302.087 218.864V218.176C301.463 218.096 301.015 218.08 300.599 218.08C298.983 218.08 298.183 218.56 298.183 219.552ZM305.176 217.76C305.176 215.184 306.648 213.36 308.936 213.36C310.072 213.36 311.064 213.936 311.656 214.976V210.512H313.272V222H311.768V220.48C311.16 221.552 310.136 222.16 308.936 222.16C306.648 222.16 305.176 220.304 305.176 217.76ZM306.856 217.76C306.856 219.648 307.848 220.72 309.256 220.72C310.632 220.72 311.656 219.6 311.656 217.728C311.656 215.824 310.6 214.784 309.256 214.784C307.848 214.784 306.856 215.84 306.856 217.76ZM317.71 220.848C317.71 221.568 317.214 222.08 316.478 222.08C315.758 222.08 315.246 221.568 315.246 220.848C315.246 220.096 315.758 219.584 316.478 219.584C317.214 219.584 317.71 220.096 317.71 220.848ZM331.546 218.64C331.546 220.64 329.946 222.16 327.162 222.16C324.394 222.16 322.714 220.64 322.57 218.352H324.362C324.442 219.808 325.37 220.752 327.13 220.752C328.586 220.752 329.674 220.064 329.674 218.88C329.674 217.92 329.05 217.44 327.722 217.152L326.058 216.832C324.442 216.512 322.97 215.696 322.97 213.744C322.97 211.808 324.666 210.352 327.05 210.352C329.434 210.352 331.242 211.808 331.386 214.096H329.594C329.498 212.72 328.506 211.76 327.066 211.76C325.578 211.76 324.762 212.64 324.762 213.632C324.762 214.72 325.706 215.104 326.778 215.328L328.474 215.664C330.442 216.064 331.546 216.928 331.546 218.64ZM338.271 220.432V221.856C337.775 222.08 337.343 222.16 336.831 222.16C335.263 222.16 334.175 221.312 334.175 219.44V214.896H332.303V213.52H334.175V211.008H335.791V213.52H338.351V214.896H335.791V219.072C335.791 220.24 336.351 220.656 337.215 220.656C337.599 220.656 337.935 220.592 338.271 220.432ZM341.509 217.664V222H339.893V213.52H341.397V215.312C341.989 214.144 343.269 213.408 344.661 213.408V215.088C342.837 214.992 341.509 215.792 341.509 217.664ZM347.908 211.552C347.908 212.16 347.428 212.624 346.74 212.624C346.052 212.624 345.556 212.16 345.556 211.552C345.556 210.928 346.052 210.48 346.74 210.48C347.428 210.48 347.908 210.928 347.908 211.552ZM347.556 222H345.94V213.52H347.556V222ZM353.144 222.176C350.824 222.176 349.192 220.352 349.192 217.76C349.192 215.2 350.856 213.36 353.144 213.36C355.24 213.36 356.76 214.752 357.064 216.96H355.368C355.192 215.6 354.344 214.784 353.16 214.784C351.768 214.784 350.856 215.968 350.856 217.76C350.856 219.568 351.768 220.736 353.16 220.736C354.36 220.736 355.192 219.936 355.384 218.56H357.064C356.776 220.8 355.272 222.176 353.144 222.176ZM363.474 220.432V221.856C362.978 222.08 362.546 222.16 362.034 222.16C360.466 222.16 359.378 221.312 359.378 219.44V214.896H357.506V213.52H359.378V211.008H360.994V213.52H363.554V214.896H360.994V219.072C360.994 220.24 361.554 220.656 362.418 220.656C362.802 220.656 363.138 220.592 363.474 220.432ZM366.729 222H365.097V210.512H366.729V222ZM376.012 213.52L371.772 225.088H370.012L371.228 221.888L367.884 213.52H369.628L372.092 219.984L374.38 213.52H376.012ZM388.599 217.76C388.599 220.32 387.127 222.16 384.855 222.16C383.703 222.16 382.727 221.584 382.119 220.56V225.088H380.503V213.52H382.007V215.072C382.615 213.984 383.655 213.36 384.855 213.36C387.111 213.36 388.599 215.2 388.599 217.76ZM386.919 217.76C386.919 215.856 385.911 214.784 384.519 214.784C383.175 214.784 382.119 215.856 382.119 217.76C382.119 219.632 383.159 220.72 384.519 220.72C385.911 220.72 386.919 219.664 386.919 217.76ZM391.853 217.664V222H390.237V213.52H391.741V215.312C392.333 214.144 393.613 213.408 395.005 213.408V215.088C393.181 214.992 391.853 215.792 391.853 217.664ZM399.805 222.16C397.405 222.16 395.645 220.272 395.645 217.76C395.645 215.248 397.405 213.36 399.805 213.36C402.205 213.36 403.965 215.248 403.965 217.76C403.965 220.272 402.205 222.16 399.805 222.16ZM399.805 220.736C401.197 220.736 402.301 219.616 402.301 217.76C402.301 215.904 401.197 214.8 399.805 214.8C398.413 214.8 397.325 215.904 397.325 217.76C397.325 219.616 398.413 220.736 399.805 220.736ZM407.228 217.216V222H405.612V210.512H407.228V214.88C407.788 213.968 408.652 213.36 409.82 213.36C411.564 213.36 412.716 214.48 412.716 216.512V222H411.1V217.056C411.1 215.6 410.46 214.784 409.26 214.784C408.156 214.784 407.228 215.712 407.228 217.216ZM416.83 211.552C416.83 212.16 416.35 212.624 415.662 212.624C414.974 212.624 414.478 212.16 414.478 211.552C414.478 210.928 414.974 210.48 415.662 210.48C416.35 210.48 416.83 210.928 416.83 211.552ZM416.478 222H414.862V213.52H416.478V222ZM426.818 217.76C426.818 220.304 425.346 222.16 423.058 222.16C421.858 222.16 420.834 221.552 420.226 220.48V222H418.722V210.512H420.338V214.976C420.93 213.936 421.906 213.36 423.058 213.36C425.33 213.36 426.818 215.184 426.818 217.76ZM425.138 217.76C425.138 215.84 424.13 214.784 422.738 214.784C421.394 214.784 420.338 215.824 420.338 217.728C420.338 219.6 421.362 220.72 422.738 220.72C424.13 220.72 425.138 219.648 425.138 217.76ZM430.424 211.552C430.424 212.16 429.944 212.624 429.256 212.624C428.568 212.624 428.072 212.16 428.072 211.552C428.072 210.928 428.568 210.48 429.256 210.48C429.944 210.48 430.424 210.928 430.424 211.552ZM430.072 222H428.456V213.52H430.072V222ZM437.099 220.432V221.856C436.603 222.08 436.171 222.16 435.659 222.16C434.091 222.16 433.003 221.312 433.003 219.44V214.896H431.131V213.52H433.003V211.008H434.619V213.52H437.179V214.896H434.619V219.072C434.619 220.24 435.179 220.656 436.043 220.656C436.427 220.656 436.763 220.592 437.099 220.432ZM441.975 222.16C439.527 222.16 437.879 220.384 437.879 217.712C437.879 215.2 439.591 213.36 441.927 213.36C444.455 213.36 446.135 215.408 445.847 218.16H439.527C439.655 219.888 440.519 220.896 441.943 220.896C443.143 220.896 443.975 220.24 444.247 219.136H445.847C445.431 221.024 443.975 222.16 441.975 222.16ZM441.895 214.576C440.599 214.576 439.719 215.504 439.543 217.088H444.135C444.055 215.52 443.207 214.576 441.895 214.576ZM446.801 217.76C446.801 215.184 448.273 213.36 450.561 213.36C451.697 213.36 452.689 213.936 453.281 214.976V210.512H454.897V222H453.393V220.48C452.785 221.552 451.761 222.16 450.561 222.16C448.273 222.16 446.801 220.304 446.801 217.76ZM448.481 217.76C448.481 219.648 449.473 220.72 450.881 220.72C452.257 220.72 453.281 219.6 453.281 217.728C453.281 215.824 452.225 214.784 450.881 214.784C449.473 214.784 448.481 215.84 448.481 217.76ZM72.2853 246H70.6693V238.896H68.7973V237.52H70.6693V236.896C70.6693 235.264 71.5493 234.368 73.1493 234.368C73.6293 234.368 74.0133 234.448 74.3333 234.576V235.888C74.0773 235.776 73.7893 235.744 73.5013 235.744C72.7333 235.744 72.2853 236.096 72.2853 236.912V237.52H74.6533V238.896H72.2853V246ZM77.5016 241.664V246H75.8856V237.52H77.3896V239.312C77.9816 238.144 79.2616 237.408 80.6536 237.408V239.088C78.8296 238.992 77.5016 239.792 77.5016 241.664ZM85.4533 246.16C83.0533 246.16 81.2933 244.272 81.2933 241.76C81.2933 239.248 83.0533 237.36 85.4533 237.36C87.8533 237.36 89.6133 239.248 89.6133 241.76C89.6133 244.272 87.8533 246.16 85.4533 246.16ZM85.4533 244.736C86.8453 244.736 87.9493 243.616 87.9493 241.76C87.9493 239.904 86.8453 238.8 85.4533 238.8C84.0613 238.8 82.9733 239.904 82.9733 241.76C82.9733 243.616 84.0613 244.736 85.4533 244.736ZM92.8766 246H91.2606V237.52H92.7646V238.928C93.3406 237.952 94.2526 237.36 95.4206 237.36C96.6686 237.36 97.6126 238 97.9966 239.12C98.5886 238.032 99.5646 237.36 100.861 237.36C102.605 237.36 103.725 238.496 103.725 240.512V246H102.109V241.024C102.109 239.616 101.485 238.784 100.301 238.784C99.1966 238.784 98.3006 239.712 98.3006 241.136V246H96.6846V241.024C96.6846 239.616 96.0606 238.784 94.8766 238.784C93.7566 238.784 92.8766 239.712 92.8766 241.136V246ZM114.525 242.512V237.52H116.141V246H114.637V244.656C114.189 245.536 113.197 246.16 112.045 246.16C110.333 246.16 109.149 245.152 109.149 242.976V237.52H110.765V242.656C110.765 244.128 111.501 244.736 112.557 244.736C113.645 244.736 114.525 243.84 114.525 242.512ZM126.482 241.76C126.482 244.32 125.01 246.16 122.738 246.16C121.586 246.16 120.61 245.584 120.002 244.56V249.088H118.386V237.52H119.89V239.072C120.498 237.984 121.538 237.36 122.738 237.36C124.994 237.36 126.482 239.2 126.482 241.76ZM124.802 241.76C124.802 239.856 123.794 238.784 122.402 238.784C121.058 238.784 120.002 239.856 120.002 241.76C120.002 243.632 121.042 244.72 122.402 244.72C123.794 244.72 124.802 243.664 124.802 241.76ZM129.752 246H128.12V234.512H129.752V246ZM135.547 246.16C133.147 246.16 131.387 244.272 131.387 241.76C131.387 239.248 133.147 237.36 135.547 237.36C137.947 237.36 139.707 239.248 139.707 241.76C139.707 244.272 137.947 246.16 135.547 246.16ZM135.547 244.736C136.939 244.736 138.043 243.616 138.043 241.76C138.043 239.904 136.939 238.8 135.547 238.8C134.155 238.8 133.067 239.904 133.067 241.76C133.067 243.616 134.155 244.736 135.547 244.736ZM146.49 246V244.688C145.962 245.632 145.018 246.16 143.77 246.16C142.01 246.16 140.858 245.152 140.858 243.6C140.858 241.936 142.186 241.072 144.714 241.072C145.21 241.072 145.61 241.088 146.298 241.168V240.544C146.298 239.328 145.642 238.64 144.522 238.64C143.338 238.64 142.618 239.344 142.57 240.528H141.098C141.178 238.624 142.538 237.36 144.522 237.36C146.618 237.36 147.834 238.544 147.834 240.56V246H146.49ZM142.394 243.552C142.394 244.432 143.05 245.008 144.09 245.008C145.45 245.008 146.298 244.16 146.298 242.864V242.176C145.674 242.096 145.226 242.08 144.81 242.08C143.194 242.08 142.394 242.56 142.394 243.552ZM149.387 241.76C149.387 239.184 150.859 237.36 153.147 237.36C154.283 237.36 155.275 237.936 155.867 238.976V234.512H157.483V246H155.979V244.48C155.371 245.552 154.347 246.16 153.147 246.16C150.859 246.16 149.387 244.304 149.387 241.76ZM151.067 241.76C151.067 243.648 152.059 244.72 153.467 244.72C154.843 244.72 155.867 243.6 155.867 241.728C155.867 239.824 154.811 238.784 153.467 238.784C152.059 238.784 151.067 239.84 151.067 241.76ZM161.697 235.552C161.697 236.16 161.217 236.624 160.529 236.624C159.841 236.624 159.345 236.16 159.345 235.552C159.345 234.928 159.841 234.48 160.529 234.48C161.217 234.48 161.697 234.928 161.697 235.552ZM161.345 246H159.729V237.52H161.345V246ZM165.205 241.216V246H163.589V237.52H165.093V238.928C165.669 237.984 166.629 237.36 167.797 237.36C169.541 237.36 170.693 238.48 170.693 240.512V246H169.077V241.056C169.077 239.6 168.437 238.784 167.237 238.784C166.133 238.784 165.205 239.712 165.205 241.216ZM176.231 249.264C174.007 249.264 172.567 248.08 172.471 246.16H174.039C174.135 247.344 174.903 247.984 176.215 247.984C177.671 247.984 178.439 247.2 178.439 245.744V244.208C177.959 245.232 176.999 245.824 175.847 245.824C173.735 245.824 172.231 244.08 172.231 241.584C172.231 239.056 173.671 237.36 175.799 237.36C177.015 237.36 177.975 237.952 178.551 239.024V237.52H180.055V245.712C180.055 247.936 178.631 249.264 176.231 249.264ZM173.863 241.584C173.863 243.344 174.727 244.416 176.135 244.416C177.511 244.416 178.439 243.312 178.439 241.632C178.439 239.872 177.527 238.752 176.135 238.752C174.743 238.752 173.863 239.84 173.863 241.584ZM188.98 246.176C186.66 246.176 185.028 244.352 185.028 241.76C185.028 239.2 186.692 237.36 188.98 237.36C191.076 237.36 192.596 238.752 192.9 240.96H191.204C191.028 239.6 190.18 238.784 188.996 238.784C187.604 238.784 186.692 239.968 186.692 241.76C186.692 243.568 187.604 244.736 188.996 244.736C190.196 244.736 191.028 243.936 191.22 242.56H192.9C192.612 244.8 191.108 246.176 188.98 246.176ZM198 246.16C195.6 246.16 193.84 244.272 193.84 241.76C193.84 239.248 195.6 237.36 198 237.36C200.4 237.36 202.16 239.248 202.16 241.76C202.16 244.272 200.4 246.16 198 246.16ZM198 244.736C199.392 244.736 200.496 243.616 200.496 241.76C200.496 239.904 199.392 238.8 198 238.8C196.608 238.8 195.52 239.904 195.52 241.76C195.52 243.616 196.608 244.736 198 244.736ZM205.424 246H203.808V237.52H205.312V238.928C205.888 237.952 206.799 237.36 207.968 237.36C209.216 237.36 210.16 238 210.544 239.12C211.135 238.032 212.112 237.36 213.408 237.36C215.152 237.36 216.272 238.496 216.272 240.512V246H214.656V241.024C214.656 239.616 214.032 238.784 212.848 238.784C211.744 238.784 210.848 239.712 210.848 241.136V246H209.232V241.024C209.232 239.616 208.608 238.784 207.424 238.784C206.304 238.784 205.424 239.712 205.424 241.136V246ZM226.529 241.76C226.529 244.32 225.057 246.16 222.785 246.16C221.633 246.16 220.657 245.584 220.049 244.56V249.088H218.433V237.52H219.937V239.072C220.545 237.984 221.585 237.36 222.785 237.36C225.041 237.36 226.529 239.2 226.529 241.76ZM224.849 241.76C224.849 239.856 223.841 238.784 222.449 238.784C221.105 238.784 220.049 239.856 220.049 241.76C220.049 243.632 221.089 244.72 222.449 244.72C223.841 244.72 224.849 243.664 224.849 241.76ZM233.303 246V244.688C232.775 245.632 231.831 246.16 230.583 246.16C228.823 246.16 227.671 245.152 227.671 243.6C227.671 241.936 228.999 241.072 231.527 241.072C232.023 241.072 232.423 241.088 233.111 241.168V240.544C233.111 239.328 232.455 238.64 231.335 238.64C230.151 238.64 229.431 239.344 229.383 240.528H227.911C227.991 238.624 229.351 237.36 231.335 237.36C233.431 237.36 234.647 238.544 234.647 240.56V246H233.303ZM229.207 243.552C229.207 244.432 229.863 245.008 230.903 245.008C232.263 245.008 233.111 244.16 233.111 242.864V242.176C232.487 242.096 232.039 242.08 231.623 242.08C230.007 242.08 229.207 242.56 229.207 243.552ZM238.424 241.216V246H236.808V237.52H238.312V238.928C238.888 237.984 239.848 237.36 241.016 237.36C242.76 237.36 243.911 238.48 243.911 240.512V246H242.296V241.056C242.296 239.6 241.656 238.784 240.456 238.784C239.352 238.784 238.424 239.712 238.424 241.216ZM252.785 237.52L248.545 249.088H246.785L248.001 245.888L244.657 237.52H246.401L248.865 243.984L251.153 237.52H252.785ZM256.668 241.76C256.668 239.184 258.14 237.36 260.428 237.36C261.564 237.36 262.556 237.936 263.148 238.976V234.512H264.764V246H263.26V244.48C262.652 245.552 261.628 246.16 260.428 246.16C258.14 246.16 256.668 244.304 256.668 241.76ZM258.348 241.76C258.348 243.648 259.34 244.72 260.748 244.72C262.124 244.72 263.148 243.6 263.148 241.728C263.148 239.824 262.092 238.784 260.748 238.784C259.34 238.784 258.348 239.84 258.348 241.76ZM272.147 246V244.688C271.619 245.632 270.675 246.16 269.427 246.16C267.667 246.16 266.515 245.152 266.515 243.6C266.515 241.936 267.843 241.072 270.371 241.072C270.867 241.072 271.267 241.088 271.955 241.168V240.544C271.955 239.328 271.299 238.64 270.179 238.64C268.995 238.64 268.275 239.344 268.227 240.528H266.755C266.835 238.624 268.195 237.36 270.179 237.36C272.275 237.36 273.491 238.544 273.491 240.56V246H272.147ZM268.051 243.552C268.051 244.432 268.707 245.008 269.747 245.008C271.107 245.008 271.955 244.16 271.955 242.864V242.176C271.331 242.096 270.883 242.08 270.467 242.08C268.851 242.08 268.051 242.56 268.051 243.552ZM280.357 244.432V245.856C279.861 246.08 279.429 246.16 278.917 246.16C277.349 246.16 276.261 245.312 276.261 243.44V238.896H274.389V237.52H276.261V235.008H277.877V237.52H280.437V238.896H277.877V243.072C277.877 244.24 278.437 244.656 279.301 244.656C279.685 244.656 280.021 244.592 280.357 244.432ZM287.115 246V244.688C286.587 245.632 285.643 246.16 284.395 246.16C282.635 246.16 281.483 245.152 281.483 243.6C281.483 241.936 282.811 241.072 285.339 241.072C285.835 241.072 286.235 241.088 286.923 241.168V240.544C286.923 239.328 286.267 238.64 285.147 238.64C283.963 238.64 283.243 239.344 283.195 240.528H281.723C281.803 238.624 283.163 237.36 285.147 237.36C287.243 237.36 288.459 238.544 288.459 240.56V246H287.115ZM283.019 243.552C283.019 244.432 283.675 245.008 284.715 245.008C286.075 245.008 286.923 244.16 286.923 242.864V242.176C286.299 242.096 285.851 242.08 285.435 242.08C283.819 242.08 283.019 242.56 283.019 243.552ZM297.516 246.16C295.116 246.16 293.356 244.272 293.356 241.76C293.356 239.248 295.116 237.36 297.516 237.36C299.916 237.36 301.676 239.248 301.676 241.76C301.676 244.272 299.916 246.16 297.516 246.16ZM297.516 244.736C298.908 244.736 300.012 243.616 300.012 241.76C300.012 239.904 298.908 238.8 297.516 238.8C296.124 238.8 295.036 239.904 295.036 241.76C295.036 243.616 296.124 244.736 297.516 244.736ZM304.939 241.664V246H303.323V237.52H304.827V239.312C305.419 238.144 306.699 237.408 308.091 237.408V239.088C306.267 238.992 304.939 239.792 304.939 241.664ZM316.266 246.16C313.866 246.16 312.106 244.272 312.106 241.76C312.106 239.248 313.866 237.36 316.266 237.36C318.666 237.36 320.426 239.248 320.426 241.76C320.426 244.272 318.666 246.16 316.266 246.16ZM316.266 244.736C317.658 244.736 318.762 243.616 318.762 241.76C318.762 239.904 317.658 238.8 316.266 238.8C314.874 238.8 313.786 239.904 313.786 241.76C313.786 243.616 314.874 244.736 316.266 244.736ZM326.701 244.432V245.856C326.205 246.08 325.773 246.16 325.261 246.16C323.693 246.16 322.605 245.312 322.605 243.44V238.896H320.733V237.52H322.605V235.008H324.221V237.52H326.781V238.896H324.221V243.072C324.221 244.24 324.781 244.656 325.645 244.656C326.029 244.656 326.365 244.592 326.701 244.432ZM329.939 241.216V246H328.323V234.512H329.939V238.88C330.499 237.968 331.363 237.36 332.531 237.36C334.275 237.36 335.427 238.48 335.427 240.512V246H333.811V241.056C333.811 239.6 333.171 238.784 331.971 238.784C330.867 238.784 329.939 239.712 329.939 241.216ZM341.061 246.16C338.613 246.16 336.965 244.384 336.965 241.712C336.965 239.2 338.677 237.36 341.013 237.36C343.541 237.36 345.221 239.408 344.933 242.16H338.613C338.741 243.888 339.605 244.896 341.029 244.896C342.229 244.896 343.061 244.24 343.333 243.136H344.933C344.517 245.024 343.061 246.16 341.061 246.16ZM340.981 238.576C339.685 238.576 338.805 239.504 338.629 241.088H343.221C343.141 239.52 342.293 238.576 340.981 238.576ZM348.267 241.664V246H346.651V237.52H348.155V239.312C348.747 238.144 350.027 237.408 351.419 237.408V239.088C349.595 238.992 348.267 239.792 348.267 241.664ZM364.138 241.76C364.138 244.304 362.666 246.16 360.378 246.16C359.178 246.16 358.154 245.552 357.546 244.48V246H356.042V234.512H357.658V238.976C358.25 237.936 359.226 237.36 360.378 237.36C362.65 237.36 364.138 239.184 364.138 241.76ZM362.458 241.76C362.458 239.84 361.45 238.784 360.058 238.784C358.714 238.784 357.658 239.824 357.658 241.728C357.658 243.6 358.682 244.72 360.058 244.72C361.45 244.72 362.458 243.648 362.458 241.76ZM370.912 246V244.688C370.384 245.632 369.44 246.16 368.192 246.16C366.432 246.16 365.28 245.152 365.28 243.6C365.28 241.936 366.608 241.072 369.136 241.072C369.632 241.072 370.032 241.088 370.72 241.168V240.544C370.72 239.328 370.064 238.64 368.944 238.64C367.76 238.64 367.04 239.344 366.992 240.528H365.52C365.6 238.624 366.96 237.36 368.944 237.36C371.04 237.36 372.256 238.544 372.256 240.56V246H370.912ZM366.816 243.552C366.816 244.432 367.472 245.008 368.512 245.008C369.872 245.008 370.72 244.16 370.72 242.864V242.176C370.096 242.096 369.648 242.08 369.232 242.08C367.616 242.08 366.816 242.56 366.816 243.552ZM376.033 241.216V246H374.417V237.52H375.921V238.928C376.497 237.984 377.457 237.36 378.625 237.36C380.369 237.36 381.521 238.48 381.521 240.512V246H379.905V241.056C379.905 239.6 379.265 238.784 378.065 238.784C376.961 238.784 376.033 239.712 376.033 241.216ZM385.283 241.216V246H383.667V237.52H385.171V238.928C385.747 237.984 386.707 237.36 387.875 237.36C389.619 237.36 390.771 238.48 390.771 240.512V246H389.155V241.056C389.155 239.6 388.515 238.784 387.315 238.784C386.211 238.784 385.283 239.712 385.283 241.216ZM396.405 246.16C393.957 246.16 392.309 244.384 392.309 241.712C392.309 239.2 394.021 237.36 396.357 237.36C398.885 237.36 400.565 239.408 400.277 242.16H393.957C394.085 243.888 394.949 244.896 396.373 244.896C397.573 244.896 398.405 244.24 398.677 243.136H400.277C399.861 245.024 398.405 246.16 396.405 246.16ZM396.325 238.576C395.029 238.576 394.149 239.504 393.973 241.088H398.565C398.485 239.52 397.637 238.576 396.325 238.576ZM401.231 241.76C401.231 239.184 402.703 237.36 404.991 237.36C406.127 237.36 407.119 237.936 407.711 238.976V234.512H409.327V246H407.823V244.48C407.215 245.552 406.191 246.16 404.991 246.16C402.703 246.16 401.231 244.304 401.231 241.76ZM402.911 241.76C402.911 243.648 403.903 244.72 405.311 244.72C406.687 244.72 407.711 243.6 407.711 241.728C407.711 239.824 406.655 238.784 405.311 238.784C403.903 238.784 402.911 239.84 402.911 241.76ZM417.301 246H415.685V238.896H413.813V237.52H415.685V236.896C415.685 235.264 416.565 234.368 418.165 234.368C418.645 234.368 419.029 234.448 419.349 234.576V235.888C419.093 235.776 418.805 235.744 418.517 235.744C417.749 235.744 417.301 236.096 417.301 236.912V237.52H419.669V238.896H417.301V246ZM422.853 235.552C422.853 236.16 422.373 236.624 421.685 236.624C420.997 236.624 420.517 236.16 420.517 235.552C420.517 234.928 420.997 234.48 421.685 234.48C422.373 234.48 422.853 234.928 422.853 235.552ZM422.501 246H420.885V237.52H422.501V246ZM426.377 246H424.745V234.512H426.377V246ZM432.108 246.16C429.66 246.16 428.012 244.384 428.012 241.712C428.012 239.2 429.724 237.36 432.06 237.36C434.588 237.36 436.268 239.408 435.98 242.16H429.66C429.788 243.888 430.652 244.896 432.076 244.896C433.276 244.896 434.108 244.24 434.38 243.136H435.98C435.564 245.024 434.108 246.16 432.108 246.16ZM432.028 238.576C430.732 238.576 429.852 239.504 429.676 241.088H434.268C434.188 239.52 433.34 238.576 432.028 238.576ZM444.418 243.472C444.418 245.136 443.122 246.16 440.866 246.16C438.626 246.16 437.298 245.056 437.138 243.232H438.69C438.754 244.288 439.602 244.944 440.898 244.944C442.034 244.944 442.786 244.544 442.786 243.744C442.786 243.04 442.354 242.736 441.298 242.528L439.922 242.272C438.354 241.968 437.474 241.168 437.474 239.888C437.474 238.4 438.77 237.36 440.738 237.36C442.77 237.36 444.146 238.448 444.29 240.192H442.738C442.642 239.168 441.89 238.576 440.754 238.576C439.73 238.576 439.042 239.008 439.042 239.744C439.042 240.432 439.474 240.752 440.498 240.944L441.938 241.216C443.618 241.52 444.418 242.256 444.418 243.472ZM448.375 244.848C448.375 245.568 447.879 246.08 447.143 246.08C446.423 246.08 445.911 245.568 445.911 244.848C445.911 244.096 446.423 243.584 447.143 243.584C447.879 243.584 448.375 244.096 448.375 244.848Z" fill="#777E90"/>
</svg>
